Coordinates
version=1
nRows=4
nColumns=114
inDegrees=yes

Units are S.I. units (second, meters, Newtons, ...)
If the header above contains a line with 'inDegrees', this indicates whether rotational values are in degrees (yes) or radians (no).

endheader 
time	pelvis_tilt	pelvis_list	pelvis_rotation	pelvis_tx	pelvis_ty	pelvis_tz	hip_flexion_l	hip_adduction_l	hip_rotation_l	hip_flexion_r	hip_adduction_r	hip_rotation_r	knee_angle_l	knee_angle_r	ankle_angle_l	ankle_angle_r	subtalar_angle_l	subtalar_angle_r	mtp_angle_l	mtp_angle_r	lumbar_extension	lumbar_bending	lumbar_rotation	arm_flex_l	arm_add_l	arm_rot_l	arm_flex_r	arm_add_r	arm_rot_r	elbow_flex_l	elbow_flex_r	pro_sup_l	pro_sup_r	addbrev_l/activation	addlong_l/activation	addmagDist_l/activation	addmagIsch_l/activation	addmagMid_l/activation	addmagProx_l/activation	bflh_l/activation	bfsh_l/activation	edl_l/activation	ehl_l/activation	fdl_l/activation	fhl_l/activation	gaslat_l/activation	gasmed_l/activation	glmax1_l/activation	glmax2_l/activation	glmax3_l/activation	glmed1_l/activation	glmed2_l/activation	glmed3_l/activation	glmin1_l/activation	glmin2_l/activation	glmin3_l/activation	grac_l/activation	iliacus_l/activation	perbrev_l/activation	perlong_l/activation	piri_l/activation	psoas_l/activation	recfem_l/activation	sart_l/activation	semimem_l/activation	semiten_l/activation	soleus_l/activation	tfl_l/activation	tibant_l/activation	tibpost_l/activation	vasint_l/activation	vaslat_l/activation	vasmed_l/activation	addbrev_r/activation	addlong_r/activation	addmagDist_r/activation	addmagIsch_r/activation	addmagMid_r/activation	addmagProx_r/activation	bflh_r/activation	bfsh_r/activation	edl_r/activation	ehl_r/activation	fdl_r/activation	fhl_r/activation	gaslat_r/activation	gasmed_r/activation	glmax1_r/activation	glmax2_r/activation	glmax3_r/activation	glmed1_r/activation	glmed2_r/activation	glmed3_r/activation	glmin1_r/activation	glmin2_r/activation	glmin3_r/activation	grac_r/activation	iliacus_r/activation	perbrev_r/activation	perlong_r/activation	piri_r/activation	psoas_r/activation	recfem_r/activation	sart_r/activation	semimem_r/activation	semiten_r/activation	soleus_r/activation	tfl_r/activation	tibant_r/activation	tibpost_r/activation	vasint_r/activation	vaslat_r/activation	vasmed_r/activation	
          6.89000000	         -3.36217171	         -7.54349625	        -27.70688463	         -4.08761586	          1.36355494	          0.00356773	          4.58239287	          1.92012901	         11.12113928	         39.75824963	          2.46013403	        -27.44638028	         37.99788786	         40.97352257	         -5.72161005	        -13.63357289	          5.38592201	        -16.34762647	          0.12564040	         -0.05263914	          5.01367023	         27.60363637	        -41.03513190	       -245.70854391	         11.39835074	         31.45766317	       -325.25672512	         34.85473571	        -26.50143949	          5.44913944	        116.15102134	          8.11281842	         92.44015799	          0.12571128	          0.71807121	          0.01000604	          0.01000569	          0.01001189	          0.01002797	          0.01948263	          0.30117591	          0.21001827	          0.03934747	          0.01015604	          0.01008696	          0.06176945	          0.06933139	          0.01000325	          0.01000179	          0.01000198	          0.99977362	          0.05182094	          0.02060940	          0.85297507	          0.38576299	          0.02321218	          0.01546807	          0.99932992	          0.07711036	          0.15908533	          0.01544030	          0.93103995	          0.38097187	          0.43539280	          0.02713351	          0.05746185	          0.02068897	          0.64811447	          0.15077077	          0.01005203	          0.01000259	          0.01000086	          0.01000189	          0.01186315	          0.02000520	          0.01000889	          0.01001258	          0.01000751	          0.01089705	          0.03106571	          0.23748018	          0.18667348	          0.07160143	          0.01011494	          0.01003697	          0.03335247	          0.05606209	          0.06870447	          0.17046454	          0.01000839	          0.16851014	          0.14409331	          0.16847073	          0.04959438	          0.09830713	          0.09324955	          0.01289779	          0.02981114	          0.05873358	          0.09452561	          0.47662416	          0.03606859	          0.04272767	          0.37631165	          0.29513569	          0.02384612	          0.01000362	          0.18958023	          0.24249866	          0.01080756	          0.01000981	          0.01000328	          0.01000677	
          6.90000000	         -2.22634547	         -6.69287834	        -27.84245955	         -4.05775385	          1.36817352	          0.00594305	          4.26761390	          2.76255115	         10.24912542	         39.03266316	          2.66985657	        -26.04590184	         39.15676946	         38.12767428	         -7.33144146	        -13.53524747	          6.49741383	        -15.03896394	          0.26100165	         -0.07015656	          5.04157567	         26.47151586	        -42.88081254	       -249.00008581	         10.67712858	        -13.41679261	       -332.24690095	         31.56463173	        -16.65988065	          9.17114583	        115.17737383	         12.19660822	         98.89693366	          0.27869709	          0.71141683	          0.01000622	          0.01000567	          0.01001380	          0.01003705	          0.01623599	          0.25100480	          0.24668711	          0.03791363	          0.01008262	          0.01004250	          0.05147668	          0.05777703	          0.01000298	          0.01000169	          0.01000193	          0.99992138	          0.04318518	          0.01717498	          0.85503399	          0.32148394	          0.01934644	          0.01289994	          0.99977207	          0.09187532	          0.16662908	          0.01286746	          0.83853991	          0.37083211	          0.36284112	          0.02261222	          0.04788567	          0.01724126	          0.62739690	          0.19916268	          0.01002360	          0.01000231	          0.01000077	          0.01000170	          0.01000519	          0.01667144	          0.01000741	          0.01001050	          0.01000751	          0.01001683	          0.02589561	          0.26602307	          0.19950678	          0.06970840	          0.01008246	          0.01003462	          0.04656623	          0.07486351	          0.05726732	          0.14206111	          0.01000717	          0.14047806	          0.12021430	          0.16616326	          0.04135856	          0.09252315	          0.15406740	          0.01075262	          0.02484615	          0.05039405	          0.11412742	          0.52181589	          0.03005853	          0.03560695	          0.44584543	          0.41423907	          0.01988066	          0.01000324	          0.17205948	          0.23196892	          0.01001983	          0.01000762	          0.01000252	          0.01000525	
          6.91000000	         -0.74560633	         -5.88040758	        -27.95767232	         -4.02879339	          1.37222653	          0.00823966	          4.09065287	          3.61648210	          9.32080247	         38.01733000	          2.68746507	        -24.48968292	         40.83452359	         35.69688530	         -7.71582444	        -13.60937558	          6.99983908	        -14.36891026	          0.35021866	         -0.09727280	          4.49622919	         25.04175789	        -44.53982291	       -252.67700465	         12.22367696	        -74.40829848	       -336.94910600	         28.19672031	         -8.31067484	         17.37385353	        114.01718117	         23.89859851	        109.31883343	          0.25253628	          0.69584120	          0.01000854	          0.01000852	          0.01002120	          0.01004751	          0.01353068	          0.20917885	          0.26110055	          0.03172818	          0.01005698	          0.01002853	          0.04289847	          0.04814801	          0.01000285	          0.01000174	          0.01000218	          0.99996471	          0.03598855	          0.01431308	          0.75085160	          0.26790951	          0.01612457	          0.01076580	          0.99991369	          0.08955964	          0.16441875	          0.01072376	          0.69879360	          0.35060549	          0.30237273	          0.01884497	          0.03990569	          0.01436819	          0.59672781	          0.24660671	          0.01001462	          0.01000335	          0.01000114	          0.01000247	          0.01000521	          0.01389339	          0.01000835	          0.01001244	          0.01000704	          0.01001743	          0.06085301	          0.25940237	          0.20987751	          0.06983775	          0.01008408	          0.01003409	          0.05247563	          0.08913700	          0.12380809	          0.22064422	          0.01001003	          0.17378432	          0.25262240	          0.35348184	          0.03450053	          0.11357656	          0.12845559	          0.01001332	          0.02070774	          0.06715233	          0.13260800	          0.55075776	          0.02504995	          0.02967294	          0.37170980	          0.49780555	          0.01660562	          0.01000357	          0.16287132	          0.22373621	          0.01002156	          0.01000721	          0.01000237	          0.01000497	
          6.92000000	          0.99594033	         -5.15002331	        -27.94719494	         -4.00074683	          1.37543493	          0.01048259	          4.12126867	          4.35264146	          8.40267457	         36.74243856	          2.51615044	        -22.96312310	         43.01599038	         33.68698903	         -7.14760282	        -13.88139122	          6.90959558	        -14.35071457	          0.39114771	         -0.14315837	          3.49805441	         23.39628554	        -46.35373978	       -252.85331569	         12.59488264	       -119.09451795	       -340.05090473	         24.79554175	         -2.00493118	         27.79284763	        112.63559494	         40.29870598	        118.05534859	          0.37332902	          0.68424218	          0.01000878	          0.01000867	          0.01002524	          0.01006292	          0.01127688	          0.17432389	          0.24566906	          0.09910724	          0.01003954	          0.01001840	          0.03574964	          0.04012382	          0.01000273	          0.01000170	          0.01000209	          0.99996943	          0.02999134	          0.01192859	          0.72590663	          0.22326302	          0.01344026	          0.01006626	          0.96627077	          0.07466372	          0.15663626	          0.01000266	          0.58234032	          0.35974091	          0.25198131	          0.01570642	          0.03325592	          0.01197413	          0.54911278	          0.26650627	          0.01000992	          0.01000305	          0.01000105	          0.01000228	          0.01000479	          0.01157873	          0.01000805	          0.01001177	          0.01000668	          0.01001526	          0.06858554	          0.28378862	          0.20904857	          0.06320914	          0.01004922	          0.01002236	          0.05126212	          0.10440501	          0.10356258	          0.18390784	          0.01000969	          0.14565725	          0.21053861	          0.29458522	          0.02880010	          0.10280828	          0.10768921	          0.01001914	          0.01725942	          0.07465385	          0.14424729	          0.56876438	          0.02087623	          0.02472793	          0.42748777	          0.54076320	          0.03477618	          0.01000283	          0.16013793	          0.18905827	          0.01001260	          0.01000561	          0.01000183	          0.01000388	
